<svg width="169" height="35" viewBox="0 0 169 35" fill="none" xmlns="http://www.w3.org/2000/svg">
<path d="M20.2103 35V19.036H25.5666L26.3702 12.8127H20.2103V8.84007C20.2103 7.03885 20.7085 5.81134 23.2943 5.81134L26.587 5.80998V0.243652C26.0176 0.169654 24.063 0 21.788 0C17.0374 0 13.7851 2.89969 13.7851 8.22372V12.8127H8.4126V19.036H13.7851V35H20.2103Z" fill="white"/>
<path d="M92.342 0H76.6311C71.2775 0 67 4.27748 67 9.63105V25.3689C67 30.6956 71.2775 35 76.6311 35H92.3689C97.6956 35 102 30.7225 102 25.3689V9.63105C101.973 4.27748 97.6956 0 92.342 0ZM98.9062 23.97C98.9062 28.3282 95.3551 31.9331 90.9431 31.9331H78.03C73.6718 31.9331 70.0669 28.382 70.0669 23.97V11.03C70.0669 6.67179 73.618 3.06687 78.03 3.06687H91.0238C95.382 3.06687 98.9869 6.61799 98.9869 11.03V23.97H98.9062Z" fill="white"/>
<path d="M90.8623 11.1916L90.7816 11.1108L90.7009 11.0301C89.0329 9.36219 86.8 8.44751 84.4864 8.44751C79.5364 8.47441 75.5279 12.5367 75.5548 17.4867C75.5548 19.881 76.5233 22.1677 78.1913 23.8626C79.8592 25.5574 82.119 26.499 84.4864 26.499C89.4634 26.4183 93.4449 22.2484 93.3642 17.2177C93.3104 14.9848 92.4495 12.8057 90.8623 11.1916ZM84.4864 23.4321C81.2043 23.4859 78.541 20.8495 78.4872 17.5674C78.4334 14.2853 81.0698 11.622 84.3519 11.5682C87.634 11.5144 90.2973 14.1508 90.3511 17.4329V17.5136C90.3511 20.715 87.7147 23.3783 84.4864 23.4321Z" fill="white"/>
<path d="M96.0275 8.04404C96.0275 9.22774 95.1128 10.1962 93.9291 10.1962C93.3642 10.1962 92.8261 9.98101 92.4495 9.57747C91.6155 8.7435 91.6155 7.34457 92.5033 6.5106C92.9068 6.10706 93.418 5.89185 93.9829 5.89185C94.4672 5.89185 94.9514 6.08016 95.328 6.37609L95.3818 6.42989C95.4625 6.4837 95.5163 6.5644 95.5702 6.61821L95.624 6.67201C95.8392 7.04865 96.0275 7.53289 96.0275 8.04404Z" fill="white"/>
<g clip-path="url(#clip0_22_315)">
<path d="M169 6.64781C167.698 7.21875 166.312 7.59719 164.866 7.78094C166.353 6.89281 167.488 5.49719 168.022 3.815C166.635 4.64187 165.104 5.22594 163.472 5.55188C162.155 4.14969 160.278 3.28125 158.231 3.28125C154.258 3.28125 151.06 6.50563 151.06 10.4584C151.06 11.0272 151.108 11.5741 151.227 12.0947C145.261 11.8038 139.983 8.94469 136.437 4.58938C135.818 5.66344 135.455 6.89281 135.455 8.21625C135.455 10.7013 136.734 12.9041 138.642 14.1794C137.489 14.1575 136.358 13.8228 135.4 13.2956C135.4 13.3175 135.4 13.3459 135.4 13.3744C135.4 16.8612 137.887 19.7575 141.149 20.4247C140.565 20.5844 139.928 20.6609 139.267 20.6609C138.808 20.6609 138.344 20.6347 137.909 20.5384C138.839 23.38 141.477 25.4691 144.614 25.5369C142.173 27.4466 139.073 28.5972 135.717 28.5972C135.129 28.5972 134.564 28.5709 134 28.4987C137.178 30.5484 140.945 31.7188 145.007 31.7188C158.211 31.7188 165.43 20.7812 165.43 11.3006C165.43 10.9834 165.419 10.6772 165.404 10.3731C166.828 9.3625 168.024 8.10031 169 6.64781Z" fill="white"/>
</g>
<defs>
<clipPath id="clip0_22_315">
<rect width="35" height="35" fill="white" transform="translate(134)"/>
</clipPath>
</defs>
</svg>
