<svg width="169" height="35" viewBox="0 0 169 35" fill="none" xmlns="http://www.w3.org/2000/svg">
<path d="M20.2106 35V19.036H25.5669L26.3705 12.8127H20.2106V8.84007C20.2106 7.03885 20.7087 5.81134 23.2946 5.81134L26.5873 5.80998V0.243652C26.0179 0.169654 24.0632 0 21.7882 0C17.0377 0 13.7854 2.89969 13.7854 8.22372V12.8127H8.41284V19.036H13.7854V35H20.2106Z" fill="white"/>
<path d="M92.342 0H76.6311C71.2775 0 67 4.27748 67 9.63105V25.3689C67 30.6956 71.2775 35 76.6311 35H92.3689C97.6956 35 102 30.7225 102 25.3689V9.63105C101.973 4.27748 97.6956 0 92.342 0ZM98.9062 23.97C98.9062 28.3282 95.3551 31.9331 90.9431 31.9331H78.03C73.6718 31.9331 70.0669 28.382 70.0669 23.97V11.03C70.0669 6.67179 73.618 3.06687 78.03 3.06687H91.0238C95.382 3.06687 98.9869 6.61799 98.9869 11.03V23.97H98.9062Z" fill="white"/>
<path d="M90.8625 11.1918L90.7818 11.1111L90.7011 11.0304C89.0332 9.36243 86.8003 8.44775 84.4867 8.44775C79.5366 8.47466 75.5282 12.5369 75.5551 17.487C75.5551 19.8813 76.5236 22.168 78.1915 23.8628C79.8594 25.5577 82.1192 26.4993 84.4867 26.4993C89.4636 26.4185 93.4452 22.2487 93.3644 17.2179C93.3106 14.985 92.4498 12.8059 90.8625 11.1918ZM84.4867 23.4324C81.2046 23.4862 78.5412 20.8498 78.4874 17.5677C78.4336 14.2856 81.0701 11.6222 84.3521 11.5684C87.6342 11.5146 90.2976 14.1511 90.3514 17.4331V17.5139C90.3514 20.7152 87.7149 23.3786 84.4867 23.4324Z" fill="white"/>
<path d="M96.0277 8.04428C96.0277 9.22799 95.1131 10.1965 93.9294 10.1965C93.3644 10.1965 92.8264 9.98125 92.4497 9.57772C91.6157 8.74374 91.6157 7.34482 92.5035 6.51084C92.9071 6.10731 93.4182 5.89209 93.9832 5.89209C94.4674 5.89209 94.9516 6.08041 95.3283 6.37633L95.3821 6.43014C95.4628 6.48394 95.5166 6.56465 95.5704 6.61845L95.6242 6.67226C95.8394 7.04889 96.0277 7.53314 96.0277 8.04428Z" fill="white"/>
<g clip-path="url(#clip0_17_2281)">
<path d="M169 6.64781C167.698 7.21875 166.312 7.59719 164.866 7.78094C166.353 6.89281 167.488 5.49719 168.022 3.815C166.635 4.64187 165.104 5.22594 163.472 5.55188C162.155 4.14969 160.278 3.28125 158.231 3.28125C154.258 3.28125 151.06 6.50563 151.06 10.4584C151.06 11.0272 151.108 11.5741 151.227 12.0947C145.261 11.8038 139.983 8.94469 136.437 4.58938C135.818 5.66344 135.455 6.89281 135.455 8.21625C135.455 10.7013 136.734 12.9041 138.642 14.1794C137.489 14.1575 136.358 13.8228 135.4 13.2956C135.4 13.3175 135.4 13.3459 135.4 13.3744C135.4 16.8612 137.887 19.7575 141.149 20.4247C140.565 20.5844 139.928 20.6609 139.267 20.6609C138.808 20.6609 138.344 20.6347 137.909 20.5384C138.839 23.38 141.477 25.4691 144.614 25.5369C142.173 27.4466 139.073 28.5972 135.717 28.5972C135.129 28.5972 134.564 28.5709 134 28.4987C137.178 30.5484 140.945 31.7188 145.007 31.7188C158.211 31.7188 165.43 20.7812 165.43 11.3006C165.43 10.9834 165.419 10.6772 165.404 10.3731C166.828 9.3625 168.024 8.10031 169 6.64781Z" fill="white"/>
</g>
<defs>
<clipPath id="clip0_17_2281">
<rect width="35" height="35" fill="white" transform="translate(134)"/>
</clipPath>
</defs>
</svg>
